<svg width="132" height="40" viewBox="0 0 132 40" fill="none" xmlns="http://www.w3.org/2000/svg">
<path d="M4.68784 14.0698C4.68784 7.87626 9.14719 3.87109 15.9601 3.87109C21.8233 3.87109 26.4065 7.91754 26.613 13.2853H20.1304C19.8827 11.0556 18.1485 9.65174 15.6298 9.65174C12.7395 9.65174 11.0878 10.8904 11.0878 13.1201C11.0878 14.8543 12.0375 15.8866 14.1433 16.5059L18.4788 17.7859C22.9795 19.1485 25.1265 21.6672 25.1265 25.6724C25.1265 31.6182 20.6259 35.5408 13.7304 35.5408C7.08268 35.5408 2.78848 31.9485 2.58203 26.1266H9.06461C9.18848 28.3975 11.0465 29.7601 14.0195 29.7601C16.9924 29.7601 18.7678 28.4801 18.7678 26.333C18.7678 24.8053 18.0659 24.0621 16.1253 23.484L11.6659 22.204C7.20655 20.924 4.68784 17.9924 4.68784 14.0698Z" fill="#FF7037"/>
<path d="M33.9504 11.0556C32.2162 11.0556 30.9775 9.77561 30.9775 8.08271C30.9775 5.93561 32.9182 3.99496 35.1065 3.99496C36.8407 3.99496 38.0794 5.27496 38.0794 6.96787C38.0794 9.07367 36.0975 11.0556 33.9504 11.0556ZM27.1375 35.004L30.3995 14.3588H36.5517L33.2898 35.004H27.1375Z" fill="#FF7037"/>
<path d="M48.0169 35.004H41.6582V19.644H37.7356V14.3588H41.6582V7.95883H48.0169V14.3588H51.9394V19.644H48.0169V35.004Z" fill="black"/>
<path d="M63.9443 35.004H57.5856V19.644H53.663V14.3588H57.5856V7.95883H63.9443V14.3588H67.8669V19.644H63.9443V35.004Z" fill="black"/>
<path d="M80.1023 35.5408C73.8675 35.5408 69.4082 30.9988 69.4082 24.6401C69.4082 18.1988 73.7436 13.6982 79.9785 13.6982C86.4611 13.6982 90.5075 17.9511 90.5075 24.6814V26.2917L75.5191 26.3743C75.8907 29.0995 77.4185 30.3795 80.2262 30.3795C82.6211 30.3795 84.314 29.5124 84.7682 28.0259H90.5901C89.8469 32.6092 85.7591 35.5408 80.1023 35.5408ZM80.0198 18.8595C77.5011 18.8595 76.0972 19.9743 75.6017 22.4517H84.1901C84.1901 20.2634 82.5798 18.8595 80.0198 18.8595Z" fill="black"/>
<path d="M108.477 14.3588V20.3459H106.454C102.82 20.3459 100.632 21.9563 100.632 26.044V35.004H94.273V14.4001H100.26L100.59 17.4556C101.458 15.4324 103.274 14.0698 106.041 14.0698C106.784 14.0698 107.61 14.1524 108.477 14.3588Z" fill="black"/>
<path d="M120.645 3.87109L122.884 7.92501L127.371 7.19343L125.677 11.517L129.032 14.6586L124.68 15.9961L124.378 20.6453L120.645 17.9895L116.912 20.6453L116.609 15.9961L112.258 14.6586L115.613 11.517L113.919 7.19343L118.405 7.92501L120.645 3.87109Z" fill="#1CCD83"/>
</svg>
