<svg width="212" height="64" viewBox="0 0 212 64" fill="none" xmlns="http://www.w3.org/2000/svg">
<path d="M8.20914 22.5113C8.20914 12.6016 15.3441 6.19336 26.2448 6.19336C35.6259 6.19336 42.9591 12.6677 43.2894 21.2561H32.9173C32.5209 17.6886 29.7462 15.4424 25.7162 15.4424C21.0917 15.4424 18.4491 17.4243 18.4491 20.9918C18.4491 23.7665 19.9686 25.4181 23.3379 26.4091L30.2747 28.4571C37.4757 30.6372 40.9111 34.6672 40.9111 41.0755C40.9111 50.5887 33.7101 56.8649 22.6773 56.8649C12.0409 56.8649 5.17017 51.1173 4.83984 41.8022H15.212C15.4102 45.4357 18.3831 47.6158 23.1397 47.6158C27.8964 47.6158 30.7372 45.5678 30.7372 42.1325C30.7372 39.6881 29.6141 38.4989 26.509 37.574L19.374 35.526C12.2391 33.478 8.20914 28.7874 8.20914 22.5113Z" fill="#FF7037"/>
<path d="M55.0293 17.6886C52.2546 17.6886 50.2727 15.6406 50.2727 12.9319C50.2727 9.49658 53.3777 6.39155 56.8791 6.39155C59.6538 6.39155 61.6358 8.43955 61.6358 11.1482C61.6358 14.5175 58.4647 17.6886 55.0293 17.6886ZM44.1287 56.006L49.3478 22.9738H59.1914L53.9723 56.006H44.1287Z" fill="#FF7037"/>
<path d="M77.5356 56.006H67.3617V31.43H61.0856V22.9738H67.3617V12.7337H77.5356V22.9738H83.8118V31.43H77.5356V56.006Z" fill="white"/>
<path d="M103.02 56.006H92.8456V31.43H86.5695V22.9738H92.8456V12.7337H103.02V22.9738H109.296V31.43H103.02V56.006Z" fill="white"/>
<path d="M128.872 56.8649C118.897 56.8649 111.762 49.5978 111.762 39.4238C111.762 29.1178 118.699 21.9167 128.674 21.9167C139.046 21.9167 145.521 28.7214 145.521 39.4899V42.0664L121.539 42.1986C122.134 46.5588 124.578 48.6068 129.071 48.6068C132.902 48.6068 135.611 47.2195 136.338 44.8411H145.653C144.464 52.1743 137.923 56.8649 128.872 56.8649ZM128.74 30.1748C124.71 30.1748 122.464 31.9585 121.671 35.9224H135.413C135.413 32.421 132.836 30.1748 128.74 30.1748Z" fill="white"/>
<path d="M174.272 22.9738V32.5531H171.035C165.221 32.5531 161.719 35.1296 161.719 41.67V56.006H151.546V23.0398H161.125L161.653 27.9286C163.041 24.6914 165.948 22.5113 170.374 22.5113C171.563 22.5113 172.884 22.6434 174.272 22.9738Z" fill="white"/>
<path d="M193.744 6.19336L197.327 12.6796L204.505 11.5091L201.795 18.4268L207.163 23.4535L200.2 25.5934L199.716 33.0321L193.744 28.7829L187.771 33.0321L187.287 25.5934L180.324 23.4535L185.692 18.4268L182.982 11.5091L190.16 12.6796L193.744 6.19336Z" fill="#1CCD83"/>
</svg>
