<svg width="21" height="19" viewBox="0 0 21 19" fill="none" xmlns="http://www.w3.org/2000/svg">
<path d="M14.2481 10.378C13.3157 8.88905 11.7276 8 9.99998 8C8.27249 8 6.68429 8.88905 5.75201 10.378L3.50519 13.9657C3.1324 14.5611 2.9604 15.2486 3.00767 15.954C3.05494 16.6596 3.31721 17.3166 3.76604 17.8543C4.21518 18.3919 4.80867 18.7592 5.4823 18.9168C6.15594 19.0743 6.84649 19.0071 7.47918 18.7225L7.52044 18.7037C9.1126 18.0012 10.9324 18.0075 12.5206 18.7225C12.9302 18.9068 13.3642 19 13.8021 19C14.0402 19 14.2797 18.9723 14.517 18.917C15.1907 18.7595 15.7841 18.3922 16.2334 17.8546C16.6824 17.3171 16.9449 16.6599 16.9923 15.9544C17.0397 15.2486 16.8677 14.5611 16.4949 13.9656L14.2481 10.378ZM15.3103 17.0465C14.7388 17.7303 13.8143 17.9465 13.0096 17.5844C12.0531 17.1538 11.0265 16.9386 9.9995 16.9386C8.97348 16.9386 7.94698 17.1536 6.99114 17.5837L6.96395 17.596C6.16542 17.9417 5.25449 17.7227 4.6893 17.0465C4.11843 16.3625 4.05345 15.3941 4.52773 14.6366L6.77471 11.0489C7.48266 9.9184 8.68828 9.24344 9.99998 9.24344C11.3117 9.24344 12.5175 9.9184 13.2256 11.0489L15.4722 14.6365C15.9467 15.3943 15.8815 16.3628 15.3103 17.0465Z" fill="#AEB1C4"/>
<path d="M3.49763 10.8405C4.12624 10.5765 4.60379 10.0227 4.84241 9.2809C5.06929 8.57506 5.05071 7.77818 4.78978 7.03689C4.52871 6.2961 4.05383 5.69137 3.45273 5.33389C2.82101 4.95853 2.12713 4.89741 1.49957 5.1619C0.237006 5.69267 -0.342386 7.39859 0.208163 8.96553C0.647949 10.2127 1.67367 11 2.71069 11C2.97548 11 3.24102 10.9486 3.49763 10.8405ZM1.27417 8.51686C0.949762 7.59351 1.23478 6.61131 1.90992 6.32747C2.03183 6.2761 2.16073 6.25058 2.29231 6.25058C2.4954 6.25058 2.70519 6.31122 2.90709 6.43135C3.27016 6.64707 3.56023 7.02161 3.72377 7.48573C3.88717 7.95017 3.90174 8.44046 3.76466 8.86653C3.63902 9.25701 3.39861 9.54409 3.08788 9.67463C2.41363 9.95879 1.59963 9.4394 1.27417 8.51686Z" fill="#AEB1C4"/>
<path d="M7.99984 7C9.65411 7 11 5.43009 11 3.5004C11 1.57023 9.65411 0 7.99984 0C6.34573 0 5 1.57023 5 3.5004C5 5.43009 6.34573 7 7.99984 7ZM7.99984 1.22578C8.99387 1.22578 9.80277 2.24622 9.80277 3.5004C9.80277 4.7541 8.99387 5.77422 7.99984 5.77422C7.00582 5.77422 6.19723 4.7541 6.19723 3.5004C6.19723 2.24622 7.00582 1.22578 7.99984 1.22578Z" fill="#AEB1C4"/>
<path d="M13.9387 7.87912C14.2117 7.96092 14.4904 8 14.7677 8C16.062 8 17.3233 7.14965 17.8046 5.84281C18.0818 5.09054 18.0635 4.29512 17.7533 3.60322C17.4286 2.87902 16.827 2.35327 16.059 2.12268C15.291 1.8924 14.46 1.98838 13.7196 2.39311C13.0123 2.77988 12.4703 3.40704 12.1936 4.15931C11.6094 5.74623 12.3922 7.41494 13.9387 7.87912ZM13.4125 4.52495C13.5932 4.03375 13.9386 3.62902 14.3851 3.38486C14.7982 3.15895 15.2489 3.10146 15.6539 3.22294C16.0588 3.34457 16.3815 3.634 16.5627 4.03813C16.7584 4.47485 16.7668 4.98581 16.5857 5.47701C16.2248 6.45729 15.2191 7.0413 14.344 6.77887C13.4695 6.5163 13.0515 5.50523 13.4125 4.52495Z" fill="#AEB1C4"/>
<path d="M20.1082 8.48679C19.0511 7.58343 17.4697 7.97448 16.5833 9.35959C15.6978 10.7454 15.8362 12.6084 16.8917 13.5124C17.2767 13.8423 17.7315 14 18.197 14C19.0084 14 19.8525 13.5209 20.4166 12.6399C21.3022 11.2542 21.1639 9.39116 20.1082 8.48679ZM19.525 11.8764C19.0016 12.6937 18.1166 12.9648 17.5519 12.4809C16.9876 11.9977 16.9532 10.9396 17.4752 10.1228C17.8222 9.58058 18.329 9.27891 18.7961 9.27891C19.0324 9.27891 19.2585 9.35608 19.4485 9.51861C20.0123 10.0024 20.0466 11.0601 19.525 11.8764Z" fill="#AEB1C4"/>
</svg>
