<svg width="104" height="104" viewBox="0 0 104 104" fill="none" xmlns="http://www.w3.org/2000/svg">
<path d="M68.0767 55.0769C72.325 51.7344 75.4259 47.1509 76.948 41.964C78.4701 36.7771 78.3376 31.2447 76.5691 26.1366C74.8005 21.0285 71.4838 16.5986 67.0803 13.4633C62.6768 10.3279 57.4056 8.64307 52 8.64307C46.5944 8.64307 41.3231 10.3279 36.9197 13.4633C32.5162 16.5986 29.1995 21.0285 27.4309 26.1366C25.6623 31.2447 25.5299 36.7771 27.052 41.964C28.574 47.1509 31.675 51.7344 35.9233 55.0769C28.6437 57.9934 22.2919 62.8307 17.5452 69.0732C12.7985 75.3156 9.83476 82.7292 8.96999 90.5235C8.90739 91.0926 8.95749 91.6684 9.11743 92.2181C9.27737 92.7678 9.54401 93.2806 9.90214 93.7273C10.6254 94.6293 11.6774 95.2071 12.8267 95.3335C13.9759 95.46 15.1283 95.1247 16.0304 94.4014C16.9324 93.6781 17.5102 92.6262 17.6367 91.4769C18.5882 83.0061 22.6273 75.1827 28.9823 69.5016C35.3372 63.8206 43.5625 60.68 52.0867 60.68C60.6108 60.68 68.8361 63.8206 75.191 69.5016C81.546 75.1827 85.5851 83.0061 86.5367 91.4769C86.6545 92.5417 87.1625 93.5251 87.9628 94.2373C88.763 94.9495 89.7987 95.34 90.87 95.3335H91.3466C92.4826 95.2029 93.5208 94.6285 94.2351 93.7356C94.9494 92.8428 95.2818 91.7038 95.16 90.5669C94.2911 82.7504 91.3114 75.3178 86.5403 69.0658C81.7692 62.8137 75.3866 57.978 68.0767 55.0769ZM52 52.0002C48.5718 52.0002 45.2206 50.9836 42.3701 49.079C39.5197 47.1744 37.298 44.4673 35.9861 41.3001C34.6742 38.1328 34.3309 34.6477 34.9997 31.2853C35.6685 27.923 37.3194 24.8345 39.7435 22.4104C42.1676 19.9863 45.2561 18.3354 48.6184 17.6666C51.9808 16.9978 55.4659 17.3411 58.6332 18.653C61.8004 19.9649 64.5075 22.1865 66.4121 25.037C68.3167 27.8874 69.3333 31.2387 69.3333 34.6669C69.3333 39.264 67.5071 43.6728 64.2565 46.9234C61.0059 50.174 56.5971 52.0002 52 52.0002Z" fill="white"/>
</svg>
