<svg width="10" height="9" viewBox="0 0 10 9" fill="none" xmlns="http://www.w3.org/2000/svg">
<path d="M2.02383 0.175682C1.91009 0.0696977 1.75965 0.0119993 1.60421 0.0147419C1.44877 0.0174845 1.30046 0.0804539 1.19053 0.190384C1.0806 0.300315 1.01763 0.448623 1.01489 0.604064C1.01215 0.759505 1.06985 0.909942 1.17583 1.02368L4.15183 3.99968L1.17583 6.97568C1.11688 7.03061 1.0696 7.09685 1.0368 7.17045C1.00401 7.24405 0.986378 7.3235 0.984957 7.40406C0.983535 7.48463 0.998355 7.56465 1.02853 7.63936C1.05871 7.71407 1.10362 7.78194 1.1606 7.83891C1.21757 7.89589 1.28544 7.9408 1.36015 7.97098C1.43486 8.00116 1.51489 8.01598 1.59545 8.01456C1.67601 8.01313 1.75546 7.9955 1.82906 7.96271C1.90266 7.92991 1.9689 7.88263 2.02383 7.82368L4.99983 4.84768L7.97583 7.82368C8.03076 7.88263 8.097 7.92991 8.1706 7.96271C8.2442 7.9955 8.32365 8.01313 8.40421 8.01456C8.48477 8.01598 8.5648 8.00116 8.63951 7.97098C8.71422 7.9408 8.78208 7.89589 8.83906 7.83891C8.89603 7.78194 8.94095 7.71407 8.97113 7.63936C9.0013 7.56465 9.01612 7.48463 9.0147 7.40406C9.01328 7.3235 8.99565 7.24405 8.96285 7.17045C8.93006 7.09685 8.88278 7.03061 8.82383 6.97568L5.84783 3.99968L8.82383 1.02368C8.92981 0.909942 8.98751 0.759505 8.98477 0.604064C8.98203 0.448623 8.91906 0.300315 8.80913 0.190384C8.6992 0.0804539 8.55089 0.0174845 8.39545 0.0147419C8.24001 0.0119993 8.08957 0.0696977 7.97583 0.175682L4.99983 3.15168L2.02383 0.175682Z" fill="#E44A0C"/>
</svg>
