<?xml version="1.0" encoding="UTF-8"?>
<svg id="Layer_1" data-name="Layer 1" xmlns="http://www.w3.org/2000/svg" viewBox="0 0 809.62 494.21">
  <defs>
    <style>
      .cls-1 {
        fill: #f2e4d4;
      }

      .cls-1, .cls-2, .cls-3, .cls-4, .cls-5, .cls-6, .cls-7, .cls-8, .cls-9, .cls-10, .cls-11, .cls-12, .cls-13, .cls-14, .cls-15, .cls-16, .cls-17, .cls-18, .cls-19, .cls-20, .cls-21, .cls-22, .cls-23, .cls-24, .cls-25 {
        stroke-width: 0px;
      }

      .cls-2 {
        fill: #fefefe;
      }

      .cls-3 {
        fill: #f1b86a;
      }

      .cls-4 {
        fill: #14536f;
      }

      .cls-5 {
        fill: #f5f5f8;
      }

      .cls-6 {
        fill: #1c536c;
      }

      .cls-7 {
        fill: #f1e4d4;
      }

      .cls-8 {
        fill: #f1b66a;
      }

      .cls-9 {
        fill: #1ccc82;
      }

      .cls-10 {
        fill: #f1533e;
      }

      .cls-11 {
        fill: #ffca62;
      }

      .cls-12 {
        fill: #fff;
      }

      .cls-13 {
        fill: #f1b76c;
      }

      .cls-14 {
        fill: #fd7f70;
      }

      .cls-15 {
        fill: #f2cfa3;
      }

      .cls-16 {
        fill: #21576f;
      }

      .cls-17 {
        fill: #265970;
      }

      .cls-18 {
        fill: #f1e4d3;
      }

      .cls-19 {
        fill: #fe7037;
      }

      .cls-20 {
        fill: #f989bf;
      }

      .cls-21 {
        fill: #19536e;
      }

      .cls-22 {
        fill: #f1533f;
      }

      .cls-23 {
        fill: #17516c;
      }

      .cls-24 {
        fill: #f2cfa2;
      }

      .cls-25 {
        fill: #fe7f71;
      }
    </style>
  </defs>
  <path class="cls-5" d="m229.63,107.18h10.42c12.52,1.18,21.38,7.92,27.72,18.38,2.39,3.94,3.52,8.32,4.07,12.87v11.51c-1.34,10.26-6.66,18.12-14.71,24.28-5.03,3.85-10.74,6.01-17.08,6.42h-10.96c-10.35-1.37-18.28-6.71-24.43-14.92-3.5-4.68-5.43-10.02-6.27-15.78v-12.06c1.34-10.25,6.65-18.12,14.71-24.27,4.87-3.72,10.46-5.75,16.54-6.43Z"/>
  <path class="cls-19" d="m443.9,231.65c-.43-6.24-.83-12.02-1.23-17.81-.82-11.9-1.69-23.8-2.38-35.7-.13-2.15-1.02-2.88-2.91-3.44-16.1-4.74-32.16-9.57-48.24-14.38-.81-.24-1.61-.56-2.89-1,4.02-3.71,7.78-7.22,11.59-10.69,9.29-8.48,18.56-16.98,27.92-25.38,1.55-1.39,1.78-2.49,1-4.42-6.68-16.42-13.25-32.88-20.02-49.75,6.42.99,12.5,1.91,18.56,2.88,11.55,1.85,23.09,3.7,34.63,5.62,1.89.31,2.85-.24,3.81-1.94,8.14-14.55,16.39-29.04,24.62-43.54.52-.91,1.07-1.81,1.88-3.18,2.94,5.14,5.66,9.88,8.36,14.64,5.98,10.55,11.99,21.08,17.86,31.69,1.13,2.05,2.33,2.59,4.61,2.22,16.68-2.75,33.37-5.38,50.06-8.03.73-.12,1.48-.1,2.49-.17-5.17,12.87-10.24,25.51-15.31,38.15-1.45,3.61-2.72,7.32-4.42,10.81-1.16,2.39-.66,3.77,1.23,5.47,12.57,11.32,25.03,22.76,37.52,34.16.45.42,1.16.68,1.08,1.71-12.43,3.73-24.92,7.48-37.43,11.23-4.56,1.36-9.1,2.78-13.69,4.02-1.77.48-2.3,1.38-2.41,3.16-.98,15.59-2.06,31.17-3.12,46.75-.15,2.16-.35,4.31-.57,7.01-4.59-3.16-8.84-6.07-13.08-9-10.34-7.15-20.7-14.27-30.97-21.52-1.73-1.22-2.85-1.12-4.53.07-13.58,9.52-27.23,18.94-40.86,28.38-.87.6-1.78,1.14-3.13,2Z"/>
  <path class="cls-24" d="m458.29,299.69c-9.89,15.4-19.74,30.82-29.71,46.17-2.4,3.7-4.26,7.78-7.4,10.99-1.81-4.09-.79-8.48-1.29-12.71-1.07-8.92-2.45-17.67-6.85-23.02,2.95,3.16,4.58,9.45,5.83,15.85,1.23,6.26,1.43,12.62,1.39,18.99-.01,1.63-.09,3.26.39,4.85,1.04,17.68-2.84,34.87-5.28,52.19-2.68,19.06-1.48,37.93,2.62,56.67.9,4.13,2.05,7.62,7.45,7.7,2.98.04,5.02,2.55,6.36,5.09,1.13,2.14,2.5,4.01,4.17,5.7-6.85,5.5-14.97,4.33-22.89,4.48-4.36.08-6.15-1.94-6.65-5.97-1.88-15.11-4.53-30.09-7.76-44.98-.88-4.06-2.29-6.11-6.54-5.5,3.46-2.42,2.63-5.52,1.71-8.9-3.43-12.67-7.93-24.91-14.14-36.5-1.27-2.37-2.84-4.53-4.53-6.61-.64-.79-1.35-1.77-2.57-1.23-1.08.47-1.29,1.61-1.4,2.63-.52,4.8-.35,9.38,2.62,13.64,5.63,8.05,9.12,17.01,10.19,26.81.38,3.48,1.27,7.08-.79,10.41-.88,12.5-4.91,24.01-11.55,35.29,3.23.6,6.05.14,8.65,1.19,4.28,1.72,6.67,4.83,7.37,9.27.58,3.69-1.1,5.9-4.84,5.75-3.45-.15-6.31.59-8.94,2.92-1.69,1.5-3.98,1.75-6.3,1.75-20.08-.05-40.17-.08-60.25.02-3.61.02-5.83-1.32-7.25-4.62-5.17-12.08-8.42-24.63-9.85-37.7-1.63-14.84-1.15-29.61.92-44.36,2.75-17.55,6.82-34.73,14.16-51,13.23-4.04,22.05-13.24,28.95-24.7,3.45-5.73,6.2-11.75,7.9-18.24,4.9-5.16,10.75-9.11,16.66-12.99.45-.08.9-.07,1.35.02,1.1.45,1.84,1.34,2.63,2.16,5.73,9.02,16.36,11.73,26.84,5.11,7.41-4.68,12.81-10.92,16.13-19.01,5.01-12.19,6.72-24.83,5.17-37.91-.08-4.26-.13-8.52-.83-11.94,1.93,14.03.99,28.59-4.49,42.6-5.16,13.18-20.6,23.93-33.11,23.45-3.92-.15-7.64-1.07-10.77-3.64-3.58-5.04-2.33-9.34,1.23-14.06,6.41-8.49,12.92-16.93,18.52-26.01,1.67-2.63,3.5-5.2,5.53-7.5,3.6-4.07,5.93-8.2,4.97-13.97-.55-3.32,1.35-6.47,3.5-8.9,4.03-4.56,4.87-9.61,3.52-15.28-.14-.59-.07-1.18.13-1.75,1.59-1.2,1.05-2.95,1.06-4.5.04-9.86-.01-19.72.02-29.58,0-1.58-.45-3.26.71-4.68,1.03-.56,1.99-.06,2.97.17,4.5,1.06,8.74,1.05,12.08-2.87.47-.55,1.11-.96,1.93-.7,2.16,5.42,4.31,10.84,6.8,17.1.98-3.61.21-6.29,1.03-8.89.95-3,2.56-3.39,4.99-1.9,2.51,1.54,3.47,3.87,3.45,6.78-.06,6.53.12,13.07-.08,19.6-.09,2.8.89,3.95,3.59,4.37,11.31,1.76,17.8,9.08,21.94,19.16,2.11,5.15,1.49,10.1-.35,15.12-1.65,4.49-3.53,9.02-6.93,12.3-3.2,3.08-2.58,5.3-.03,7.95.72.74,1.5,1.42,2.25,2.12,4.32,5.84,8.68,11.65,13.1,17.42.91,1.19,1.86,2.37,1.34,4.03-3.15,5.98-3.42,5.99-7.99,1.48-2.68-2.65-4.93-5.78-8.24-7.77-.54,3.01,1.64,5.2,2.37,7.83,1.17,4.21,4.04,8,3.1,12.73Z"/>
  <path class="cls-10" d="m487.82,367.64c-5.11-1.36-10.18-2.42-14.28-6.47-7.02-6.92-8.3-14.93-6.35-24.11,3.05-14.31,5.92-28.65,8.79-42.99,1.76-8.81,7.31-15.07,13.71-20.77,1.99-1.77,4.1-3.38,6.94-5.7-.69,7.17,2.39,14.08-4.61,19.5-3.83,2.96-4.93,8.07-5.9,12.67-2.89,13.73-5.52,27.52-8.1,41.31-1.57,8.4,2.36,13.57,10.92,14.95.86.14,1.68.57,2.51.86-.95,3.67-1.77,7.39-3.64,10.76Z"/>
  <path class="cls-24" d="m703.08,308.7c3.24-16.64,6.47-33.29,9.73-49.93.25-1.3.66-2.57.99-3.86,13.77,1.81,24.23,17.28,21.85,30.78-2.54,14.4-16.53,24.2-29,22.93-1.17-.12-2.38.04-3.57.07Z"/>
  <path class="cls-15" d="m285.03,375.57c1.24,2.82-1.05,4.92-1.55,7.39-.77,3.82-2.84,7.39-2.19,11.49-3.44,4.59-2.9,10.2-3.29,15.33-1.58,20.66.86,40.87,8.88,60.14,2.5,6.01,5.72,11.73,8.66,17.56.79,1.56,2.02,2.92,2.28,5.11-7.11-.24-12.15-3.63-15.76-9.36-6.54-10.38-10.96-21.67-14.06-33.5-5.64-24.11-1.85-46.73,10.87-67.87,1.49-2.47,2.23-6.03,6.15-6.27Z"/>
  <path class="cls-22" d="m258.14,303.24c8.44-.4,16.34.88,22.3,7.61,3.22,3.64,5.37,7.91,5.39,12.87.09,15.77.05,31.53.03,47.3,0,1.3.29,2.72-.95,3.73-4.15.49-4.72,4.42-6.76,6.96-.96,1.2-.98,3.97-3.75,2.54-.94-2.01-1.88-4.01-2.82-6.02,3.97-5.91,3.63-12.59,3.55-19.27-.11-9.67-.02-19.33-.03-29,0-11.42-3.72-15.1-15.23-15.11-.59,0-1.19,0-1.78,0,.02-3.87.03-7.75.05-11.62Z"/>
  <path class="cls-3" d="m435.97,488.18c-2.31.12-3.87-.48-4.52-3.12-1.11-4.52-3.98-7.18-8.93-6.74-2.77.25-3.81-1.03-4.55-3.61-4.79-16.71-6.07-33.82-5.09-51,.6-10.56,2.63-21.07,4.41-31.53,1.8-10.54,2.11-21.17,2.59-31.79.34-.37.46-1.05,1.19-.88,1.29,11.33,2.31,22.67.71,34.07-.68,4.84-.08,9.72-.82,14.64-.98,6.56-.82,13.29-1.12,19.95-.05,1.04-.07,2.1.86,2.87-1.9,6.19.14,12.35.37,18.49.22,6.02,1.82,11.96,3.23,17.87,1.08,4.52,2.64,7.5,8.18,6.67,3.13-.47,6.16.99,6.57,4.56.4,3.46,1.72,7.6-3.08,9.54Z"/>
  <path class="cls-14" d="m383.23,436.46c.58-13.83-2.99-26.43-11.11-37.7-3.25-4.5-2.64-9.6-1.96-14.61.19-1.36.71-3.23,2.18-3.66,1.69-.5,2.48,1.4,3.38,2.44,4.73,5.47,7.61,12.05,10.52,18.54,4.07,9.09,6.71,18.69,9.51,28.23,1.12,3.8.88,6.16-3.61,6.51-2.97.09-5.94.17-8.9.26Z"/>
  <path class="cls-1" d="m274.4,384.25c3.65-1.9,4.18-6.09,6.47-9.01,1.5-1.92,2.48-2.06,4.05-.5.07.27.11.55.11.83-5.76,5.82-8.81,13.28-12,20.56-4.83,10.98-6.68,22.71-6.69,34.62,0,6.32,1.08,12.64,1.68,18.97-3.36-9.87-4.31-19.99-3.16-30.34,1.23-11.06,3.87-21.7,9.01-31.65.51-.99.37-2.31.54-3.47Z"/>
  <path class="cls-25" d="m276.48,328.63c0-2.54-.33-5.02-1.35-7.39-2.86-6.64-10.36-9.45-17.04-6.39-8.19-.01-16.38-.27-24.55.07-4.07.17-4.88-1.15-4.87-4.99.13-49.56.09-99.11.09-148.67,0-10.12-3.9-14.07-13.98-14.08-18.9-.02-37.8.11-56.7-.06-7.59-.07-13.31,2.68-18,8.72-13.69,17.61-27.67,35-41.53,52.48-25.78,32.53-51.51,65.09-77.35,97.56-4.54,5.71-7.03,11.93-6.99,19.25.07,13.84-.02,27.68,0,41.52.01,9.58,3.89,13.4,13.62,13.4,39.29,0,78.58,0,117.88,0q7.86,0,7.85,8.07c0,10.71-.04,21.43,0,32.14.04,8.13,4.29,12.36,12.39,12.38,16.82.03,33.64.03,50.45,0,8.02-.01,12.34-4.38,12.36-12.46.03-11.91.12-23.81-.07-35.71-.06-3.45.85-4.43,4.43-4.55,12.83-.42,25.79,1.88,38.48-1.68,4.19-2.87,4.82-7.28,4.87-11.79.12-12.6.06-25.21.03-37.81Zm-123.55-13.79c-18.57-.06-37.15-.03-56.87-.03,19.9-25.07,39.23-49.42,58.56-73.76.28.18.56.37.83.55,0,23.36,0,46.72.01,70.08,0,1.79-.09,3.17-2.53,3.17Z"/>
  <path class="cls-25" d="m731.35,336.54c-9.61-1.87-19.2-3.88-28.87-5.45-3.24-.53-3.44-1.95-2.92-4.5,1.22-5.96,2.35-11.93,3.52-17.9,1.52-1.38,1.94-3.25,2.3-5.15,2.82-14.64,5.69-29.27,8.59-43.9.31-1.57.79-3.19-.17-4.74.3-2.58.59-5.15.89-7.73-2.06-4.54-3.6-8.98-3.11-14.3.37-4.03,1.07-8.26.12-12.4-.67-2.91-.42-5.62,2.09-7.72.81-.68,1.65-1.78,1.13-2.72-1.62-2.88-.2-4.28,2.13-5.64,1.21-.7,1.59-2.18,1.73-3.5.47-4.61-.43-9.17-.62-13.76-.05-1.25-.9-2.47-2.41-1.48-4.02,2.63-8.72,4.44-12.17,7.63-6.69,6.19-8.95,6.55-15.62.31-.65-.61-1.23-1.3-1.89-1.9-6.64-5.98-9.17-13.22-6.9-22.01.53-2.06-2.68-9.66-4.34-10.7-.64-.41-1.4-.64-2.13-.58-6.06.54-12.16.05-18.2.88-1.59.22-2.97.83-3.29,2.53-.68,3.7-3,4.23-6.26,3.77-2.67-.38-5.56-.47-7.01,2.53-2.15,4.46-8.48,5.48-9.07,11.25-.07.71-1.42.95-2.28,1.21-1,.3-2.05.58-2.72,1.44-4.01,5.08-8.24,9.9-14.07,13.01-.52.28-1.03.78-1.13,1.34-.93,5.29-7.78,5.73-8.95,11.01-.27,1.23-2.66.83-4.13.89-1.92.08-4.44-.63-5.6.75-2.69,3.2-6.53,5.55-8.69,8.6-2.1,2.97-3.44,5.79-7.16,6.84-.98.28-1.28,1.63-2.03,2.3-3.82,3.44-6.78,7.66-10.71,11.06-3.21,2.78-4.96,7.21-9.62,8.43-.24.06-.4.46-.45.75-.43,2.92-2.39,4.21-5.02,4.95-1.18.33-1.96,1.34-2.45,2.47-1.34,3.1-3.74,3.98-6.91,3.48-1.96-.31-4.92-.35-5.41,1.05-1.45,4.16-3.6,7.21-7.87,8.56-1.18,5.79-7.58,6.99-10.31,11.69-1.29,2.21-4.44,3.61-5.67,6.46-.48,1.12-1.88,1.35-2.87,1.97-5.48,3.47-11.07,6.92-10.27,14.78.31,3.02-.82,5.12-3.76,6.32-2.13.87-3.9,2.3-4.17,4.83-.73,6.81-3.66,13.6.09,20.45.92,1.68.74,3.76.55,5.71-.65,6.86.82,8.54,7.93,9.13,5.26.44,6.27,2.27,3.72,6.79-.37.65-.77,1.27-.48,2.07.69.26,1.36.63,2.07.76,34.08,6.6,68.16,13.18,102.24,19.74,9.9,1.91,9.84,1.86,7.83,11.63-2,9.74-3.96,19.48-5.75,29.26-1.51,8.24,1.91,13.24,10,14.84,16.59,3.27,33.2,6.48,49.8,9.69,7.56,1.46,12.76-2.09,14.22-9.62,2.35-12.09,4.83-24.15,6.99-36.27.51-2.86,1.41-3.24,4.07-2.69,9.88,2.04,19.82,3.83,29.74,5.7,7.79,1.46,13.03-2.14,14.49-9.86,2.47-13.12,4.96-26.24,7.49-39.35,1.61-8.34-1.77-13.36-10.27-15.02Zm-96.38-61.73c-2.43,12.66-4.97,25.3-7.36,37.97-.49,2.58-1.14,3.69-4.26,3.05-16.99-3.47-34.03-6.65-51.06-9.94-.99-.19-2.03-.3-2.88-1.46,23.6-20.26,47.2-40.51,71.54-61.39-2.1,11.21-4,21.49-5.97,31.76Z"/>
  <path class="cls-25" d="m719.5,163.89c-19.8-3.93-39.67-7.52-59.41-11.7-7.04-1.49-12.48.49-17.61,4.9-43.17,37.12-86.35,74.22-129.54,111.31-4.88,4.19-9.82,8.3-15.63,13.21.66-9.18-.46-16.98-.71-24.83-.53-16.6-3.39-32.81-9.95-48.16-11.67-27.34-30.18-47.83-58.94-57.82-20.88-7.26-42.49-8.46-64.27-7.1-15.64.98-30.95,4.04-45.25,10.81-29.18,13.83-45.86,37.88-54.57,68.05-7.63,26.44-5.48,53.65-5.48,80.67,1.86,1.66,4.19,1.21,6.37,1.38,11.36.88,19.83,9.15,19.95,20.12.18,16.32.24,32.64-.05,48.97-.1.48-.17.96-.17,1.45-.24,4.94-2.89,9.24-3.62,14.04-.27,1.79-1.41,3.74.67,5.25,3.05,4.06,5.87,8.3,9.9,11.52,2.39-2.95,2.2-6.66,2.93-10.08,2.95-13.78,6.44-27.39,12.11-40.36,5.81-12.34,13.47-23.3,23.99-32.11,1.91-1.6,3.16-3.4,3.77-5.54-.21-.54-.3-1.41-.34-2.65-.14-4.58.37-9.18-.3-13.75-.13-20.02-1.02-40.1,2.54-59.95,3.84-21.44,17.14-32.47,38.89-32.99,8.41-.2,16.59.65,24.42,3.88.05.09.09.19.13.29.24-.08.48-.17.73-.3,1.81-1.78,1.49-4.11,1.5-6.3.06-10.41,0-20.82.05-31.23.18-3.68-.67-7.34-.04-11.01.48-2.81,1.7-5.04,4.77-5.64,3.25-.64,5.38.94,6.8,3.68,1.49,2.88,2.5,5.97,3.73,8.96,1.44,3.74,2.91,7.48,4.48,11.17.79,1.84,1.07,4.99,3.22,4.84,2.61-.18,1.42-3.33,1.92-5.18.44-1.64.17-3.98,2.62-3.95,2.02.02,2.91,1.83,3.45,3.61.43,1.44.37,2.94.38,4.43.01,5.2-.03,10.4.02,15.6.05,5.59.43,6.04,5.66,7.3,17.61,4.25,25.55,21.23,17.49,37.32-1.54,3.07-3.29,6-5.66,8.51-1.95,2.07-2.1,4.1-.26,6.33,1.04,1.26,1.93,2.64,3.27,3.63,5.57,4.87,9.62,11.13,14.91,16.25,1.35,1.3,1.23,2.91.03,4.39q-3.21,4.42-7.12.53c-1.66-1.65-3.25-3.4-5.01-4.94-1.01-.88-1.89-2.47-3.68-1.35-.7,1.75.36,3.12,1.05,4.53,1.41,2.9,2.76,5.83,4.33,8.64,1.4,2.49,1.38,4.7-.53,6.85-3.83,6.03-7.71,12.02-11.63,17.99-8.73,13.3-17.37,26.66-25.83,40.12-.22.99-.18,1.98.11,2.96.35,6.62,1.18,13.22,1.09,19.88-.12,9.32-1.06,18.59-1.54,27.89-.31,6.06-1.42,12.06-1.11,18.14.09,1.77-.42,4.02,2.19,4.71,4.02-.57,7.72-2.16,11.43-3.66,27.77-11.32,45.42-32.09,55.69-59.73-.78-2.12-2.79-1.92-4.46-2.33-9.86-2.45-17.23-12.96-15.61-23.01,2.5-15.55,5.75-30.97,8.94-46.4,2.29-11.09,9.38-18.49,18.45-25.17.54,5.94,1.06,11.18-3.88,15.44-2.69,2.32-4.11,5.76-5.13,9.25-2.54,8.73-4,17.69-5.56,26.61-1.3,7.46-3.34,14.78-3.92,22.38-.54,7.15,7.79,14.77,14.81,12.47,2.32.27,4.65.54,6.97.82,1.82-2.06,4.85-3.97,3.28-7.08-1.53-3.04-4.66-3.39-8.06-2.89-3.65.55-6.13-2.71-5.38-6.43.48-2.36.93-4.89-.28-6.98-2.9-4.99-2.04-10.2-1.08-15.31.64-3.37-.4-8.06,4.32-9.27,4.23-1.08,5.35-3.81,4.42-7.28-1.84-6.85,5.59-8.37,7.09-13.2,6.98.64,7.14-7.42,12.22-9.65,2.56-1.13,3.79-4.69,6.92-6.59,2.93-1.77,4.04-6.65,8.61-7.29.09-7.22,4.54-7.61,10.03-6.45.36.08.88-.24,1.21-.51,3.16-2.61,4.68-7.34,9.74-7.49-.45-4.78,3.43-5.16,6.46-6.54.8-.36,1.54-1.57,1.69-2.49.39-2.54,1.66-3.9,4.18-4.47.87-.2,1.6-1.25,2.26-2.02,3.8-4.43,7.33-8.75,12.54-12.16,3.49-2.28,7.08-6.68,9.61-10.69,1.5-2.37,2.39-3.65,5.09-3.47,1.48.1,2.98-.05,4.46.03,2.6.14,3.24-1.2,4.53-3.47,2.32-4.09,5.73-8.05,9.64-10.61,4.5-2.95,7.44-7.27,11.51-10.49.19-.15.16-.56.27-.84.53-1.3,1.24-2.38,2.9-2.29,1.25.07,3.05-.32,3.2-1.14.89-4.98,6.48-6.4,7.98-9.89,2.18-5.08,5.1-4.34,8.72-3.73,3.16.53,5.43-.2,5.48-3.79.03-2.51,1.29-2.95,3.38-2.89,4.23.11,8.42-.93,12.72-.21,2.55.43,6.18-3.25,7.22,2.22.55,2.9,4.7,4.37,2.44,8.64-2.27,4.3-.91,9.75.87,13.61,1.6,3.47,4.94,6.75,7.96,9.74,6.59,6.53,10.92,6.96,16.24,1.45,1.89-1.96,3.02-5.55,6.96-3.48.14.07.71-.23.72-.38.25-4.18,4.77-3.3,6.55-6.09.59,4.46-.03,8.44.81,12.46.44,2.1.43,5.29-3.39,6.14-2.04.45-3.85,2.4-1.37,4.62,1.49,1.33,1.37,2.19-.18,3-3.87,2.03-3.02,5.43-2.45,8.6.3,1.63.84,3.26.34,4.82-1.29,4.03-.17,8.13-.51,12.2-.3,3.53.61,7.4,4.37,9.5.23-.54.56-1.06.67-1.62,4.43-22.72,8.85-45.45,13.24-68.18,1.28-6.6-2.37-12.16-9.09-13.49Z"/>
  <path class="cls-7" d="m333.34,301.48c1.81,5.27-.04,10.81,1.14,16.35,3.25-1.43,5.81-3.64,8.48-5.67-3.32,14.68-11.36,26.5-22.51,36.24-3.53,3.08-7.78,5.37-12.37,6.8-.98.31-1.92.97-2.74-.25,5.11-12.04,12.66-22.41,22.46-30.94,3.89-3.39,6.32-6.53,5.56-11.92-.49-3.47-.04-7.08-.02-10.62Z"/>
  <path class="cls-4" d="m417.95,170.26c-5.42,6.48-9.41,7.27-16.98,3.4-.93-3.64-.6-7.36-.33-11.01.25-3.24,2.23-5.39,5.57-6.02,3.52-.67,6.17.68,7.68,3.82,1.53,3.19,2.72,6.54,4.06,9.81Z"/>
  <path class="cls-23" d="m421.08,359.51c-.4.29-.8.59-1.19.88-.54-8.87-.33-17.79-2.46-26.52-1.61-6.61-3.83-12.79-10.79-17.14,4.25-.1,5.75,2.35,7.23,4.46,4.86,6.94,6.04,15.05,6.81,23.2.39,4.13.35,8.3.5,12.45-.03.89-.07,1.78-.1,2.67Z"/>
  <path class="cls-13" d="m469.05,285.42c-3.98-5.62-8-11.21-11.91-16.88-.98-1.42-2.32-2.7-2.53-4.57,5.07,5.53,10.19,11.02,15.2,16.6,1.6,1.77,1.26,3.51-.76,4.85Z"/>
  <path class="cls-8" d="m458.29,299.69c-1.81-5.52-3.67-11.04-5.41-16.58-.39-1.26-1.68-2.63-.06-3.97,1.48,4.7,3.99,8.93,6.31,13.21,1.57,2.89,1.8,5.16-.85,7.34Z"/>
  <path class="cls-3" d="m411.8,249.62c1.85,5.02,1.11,10.27.68,15.31-.77,8.97-2.66,17.83-6.88,25.93-5.2,10-12.97,17.2-24.01,20.15-6.73,1.8-17.22-2.35-19.71-9.96.89-.42,1.76-.15,2.58.19,10.97,4.59,20.24.78,28.86-5.91,9.55-7.41,14.05-17.52,15.91-29.24.87-5.49.36-11.2,2.57-16.47Z"/>
  <path class="cls-6" d="m411.8,249.62c-.81,9.15-1.29,18.39-4.43,27.12-5.2,14.46-15.21,23.72-30.41,26.97-5.33,1.14-10.25-.59-15.07-2.65-.68-.45-1.36-.9-2.03-1.34-.36-.71-.4-1.52.34-1.83.69-.29,1.31.32,1.75.92,7.95,5.18,16.09,4.5,24.06.32,12.91-6.78,19.94-17.73,22.21-32.03,1.64-10.33,2.41-20.65,1.03-31.06-.15-1.12-.55-2.35.74-4.21,1.64,6.26,1.39,12.09,1.82,17.82Z"/>
  <path class="cls-18" d="m361.93,298.79c-.95-.29-2.18-1.2-2.08.91-.28-.02-.55-.05-.82-.09-3.52-7.8.41-13.16,5.53-18.59,6.22-6.6,10.72-14.72,17.77-20.64-3.45,6.69-8.56,12.22-12.71,18.43-2.45,3.66-5.11,7.2-7.88,10.63-2.65,3.28-.55,6.25.2,9.34Z"/>
  <path class="cls-21" d="m363.37,430.12c1.91,16.09-1.21,31.55-6.03,46.76,6.29,1.92,13.54-2.27,18.69,3.72,1.34,1.56,2.4,3.42,1.53,5.69-1.6-.14-1.2-1.48-1.51-2.36-1.12-3.14-3.3-4.84-6.67-4.88-3.56-.04-7.13-.13-10.69,0-2.76.1-3.77-.5-2.72-3.53,4.65-13.43,6.8-27.29,6.6-41.51-.06-1.37-1.3-2.98.82-3.89Z"/>
  <path class="cls-16" d="m363.37,430.12c-1.11,1.12-.53,2.6-.82,3.89-.91-4.35-1.38-8.84-2.8-13.02-4.06-12-11.5-20.67-24.54-23.42-4.56-.96-8.84.04-13.16,1.26-1.19.34-2.25,1.68-4.21.31,8.6-4.5,16.96-4.87,25.31-.69,10.89,5.46,16.69,14.84,19.4,26.39.4,1.73.55,3.51.81,5.27Z"/>
  <path class="cls-17" d="m408.62,224.97c4.19-1.31,7.29-3.54,7.47-8.23.19-5.05-3.41-7.06-8.17-8.63,5.77-.73,9.66,2.82,9.88,8.12.21,5.31-3.71,9.28-9.17,8.74Z"/>
  <g>
    <path class="cls-20" d="m746.25,359.52h-10.16c-15.02-1.3-27.04-9.28-38.56-17.93-9.5-7.14-15.52-16.82-17.27-28.81-.61-4.14-.96-8.29-.4-12.51.3-2.27-.19-4.58-.65-6.82-1-4.89-1.53-9.83-2.02-14.78v-10.16c.37-4.84,1.73-9.37,4.21-13.56,4.91-8.31,12.13-12.98,21.73-14.12,3.01-.35,5.94-.17,8.83.52,1.58.38,2.31-.1,3-1.46,3.07-6.04,7.55-10.79,13.27-14.43,3.42-2.18,7.22-2.83,11.11-3.26h8.12c4.79.3,9.25,1.52,13.28,4.26,4.5,3.07,8.3,6.77,10.65,11.71,1.05,2.2,2.46,2.85,4.75,2.73,6.92-.37,13.21,1.62,18.92,5.52,12.42,8.5,16.97,25.27,10.55,38.9-.95,2.02-1.93,4.03-3.18,5.88-.53.79-.88,1.57-.04,2.35,4.73,4.44,6.93,10,7.22,16.39v6.91c-1.62,13.89-10.62,21.7-22.46,27.08-4.13,1.88-8.57,2.92-12.8,4.55-2.41.93-4.72,2.01-6.88,3.42-2.89,1.9-6.02,3.36-9.1,4.89-3.83,1.91-7.98,2.29-12.13,2.71Z"/>
    <path class="cls-2" d="m756.41,293.61c.17,2.28-.05,4.39-.51,6.42-1.3,5.67-.35,11.16,1.1,16.62.77,2.9,1.33,5.82.96,8.82-.9,7.28-7.93,11.56-15.43,9.44-3.26-.92-6.24-2.45-8.5-4.94-4.94-5.43-10.79-9.07-18.04-10.6-3.48-.73-6.54-2.54-9.09-5.1-6.53-6.58-5.02-15.73,3.29-19.81,1.21-.59,2.48-1.14,3.79-1.44,7.16-1.6,13.42-4.84,18.92-9.7,2.29-2.02,5.02-3.5,8.03-4.21,7.85-1.83,15.09,3.73,15.48,11.81.05.95,0,1.89,0,2.68Z"/>
    <path class="cls-2" d="m777.81,329.07c-3.53-.16-6.96-.88-9.91-2.99-6.64-4.74-7.66-12.8-2.52-19.18,5.26-6.52,14.43-9.11,22.36-6.33,9.85,3.46,12.48,14.53,5.22,22.09-4.11,4.28-9.23,6.23-15.14,6.41Z"/>
    <path class="cls-2" d="m706.2,254.23c2.58-.05,5.79,1.7,8.61,4.29,5.82,5.35,7.85,15.24,4.65,22.46-3.66,8.25-12.25,10.69-19.7,5.58-8.29-5.68-10.85-18.63-5.23-26.76,2.46-3.56,5.85-5.54,11.66-5.57Z"/>
    <path class="cls-2" d="m758.12,250.87c-.04,6.42-1.68,11.3-5.6,15.26-7.59,7.67-18.6,5.42-22.33-4.75-2.9-7.92-1.4-15.28,4.5-21.37,7.41-7.65,18.43-5.16,22.17,4.84.84,2.24,1.36,4.53,1.26,6.02Z"/>
    <path class="cls-2" d="m760.77,275.4c.01-10.98,11.46-20.55,22.24-18.58,6.84,1.24,11.3,7.62,10.3,14.71-1.34,9.45-10.08,17-19.6,16.94-7.72-.05-12.94-5.33-12.93-13.06Z"/>
  </g>
  <path class="cls-11" d="m0,164.41c0-17.23,3.39-34.29,9.99-50.21,6.59-15.92,16.26-30.38,28.44-42.57,12.18-12.18,26.65-21.85,42.57-28.44,15.92-6.59,32.98-9.99,50.21-9.99v86.36c-5.89,0-11.72,1.16-17.16,3.41-5.44,2.25-10.39,5.56-14.55,9.72-4.16,4.16-7.47,9.11-9.72,14.55-2.25,5.44-3.41,11.27-3.41,17.16H0Z"/>
  <path class="cls-9" d="m160.02,494.18c-17.98,0-35.97-.02-53.95.04-1.25,0-1.52-.29-1.43-1.47.12-1.52.03-3.06.03-4.6.33-2.92.32-5.87.65-8.79.68-5.97,2.63-11.58,4.92-17.08,4.83-11.6,12.11-21.49,21.47-29.8,7.54-6.69,16.12-11.71,25.58-15.27,6.92-2.61,14.01-4.08,21.41-4.07.19,0,.34-.06.48-.18h13.48c1.79.32,3.61.35,5.42.44,8.13.39,15.6,3.13,22.84,6.52,13.64,6.39,24.64,15.96,33.13,28.37,5.87,8.58,9.85,18.03,12.07,28.18.71,3.26.67,6.63.88,9.95.03.46-.15.95.17,1.37,0,1.77-.06,3.55.02,5.32.04.89-.2,1.1-1.09,1.09-5.74-.05-11.47-.02-17.21-.02h-37.08c-.67-.51-.82-1.24-.91-2.03-.66-5.41-2.48-10.35-6.24-14.39-7.01-7.55-15.58-10.43-25.54-7.53-10.77,3.14-16.56,10.79-18.17,21.75-.12.83-.19,1.65-.94,2.2Z"/>
  <g>
    <path class="cls-25" d="m188.59,15.4h571.06c10.99,0,19.91,8.92,19.91,19.91v60.25c0,10.99-8.92,19.91-19.91,19.91H155.66V48.34c0-18.18,14.76-32.94,32.94-32.94Z" transform="translate(-2.81 24.82) rotate(-3.03)"/>
    <g>
      <path class="cls-12" d="m181.93,103.94l-2.43-46.61,24.03-1.25c3.81-.2,7,.4,9.56,1.79,2.56,1.39,4.52,3.36,5.86,5.9,1.34,2.54,2.1,5.41,2.26,8.59.17,3.28-.38,6.24-1.64,8.87-1.27,2.63-3.14,4.74-5.62,6.32-2.48,1.58-5.46,2.46-8.93,2.64l-10.13.53.65,12.52-13.61.71Zm12.41-23.65l7.02-.37c2.12-.11,3.67-.8,4.65-2.06.97-1.26,1.41-2.86,1.31-4.79-.11-2.07-.68-3.69-1.7-4.85-1.03-1.15-2.55-1.68-4.58-1.58l-7.38.38.69,13.24Z"/>
      <path class="cls-12" d="m219.13,102.01l15.45-47.54,14.4-.75,20.3,45.68-14.19.74-4.42-9.71-14.04.73-3.32,10.11-14.19.74Zm18.8-20.72l10.42-.54-5.92-13.41-4.5,13.95Z"/>
      <path class="cls-12" d="m294.43,98.81c-8.3.43-14.73-1.28-19.28-5.13-4.56-3.85-7.03-9.56-7.42-17.14-.41-7.82,1.52-13.96,5.79-18.44,4.27-4.48,10.72-6.94,19.35-7.4,2.89-.15,5.52-.12,7.88.1,2.36.22,4.59.61,6.7,1.17l.61,11.65c-2.17-.71-4.39-1.15-6.67-1.32-2.28-.17-4.61-.19-6.97-.07-4.49.23-7.8,1.42-9.94,3.57-2.14,2.14-3.09,5.48-2.85,10.02.22,4.25,1.36,7.26,3.41,9.04,2.05,1.78,4.98,2.57,8.8,2.37,1.25-.07,2.43-.21,3.53-.44,1.1-.23,2.12-.51,3.08-.85l-.35-6.8-9.26.48-.44-8.4,20.63-1.07,1.22,23.45c-1.73,1.2-4.05,2.32-6.97,3.34-2.92,1.02-6.53,1.65-10.82,1.87Z"/>
      <path class="cls-12" d="m317.48,96.88l-2.43-46.61,35.32-1.84.54,10.42-21.71,1.13.4,7.6,19.03-.99.55,10.57-19.03.99.4,7.6,21.71-1.13.54,10.42-35.32,1.84Z"/>
      <path class="cls-12" d="m371.98,94.04l-2.43-46.61,11.58-.6,18.87,23.76-1.29-24.68,13.61-.71,2.43,46.61-11.65.61-18.8-23.69,1.28,24.61-13.61.71Z"/>
      <path class="cls-12" d="m443.66,91.04c-7.72.4-13.72-1.17-17.99-4.72-4.27-3.55-6.63-9.52-7.07-17.92-.3-5.79.37-10.51,2.02-14.15,1.65-3.64,4.2-6.36,7.67-8.16,3.46-1.8,7.75-2.84,12.86-3.1,5.11-.27,9.49.32,13.12,1.75,3.63,1.43,6.45,3.87,8.47,7.32,2.02,3.45,3.18,8.07,3.48,13.86.44,8.39-1.3,14.58-5.2,18.56-3.91,3.98-9.69,6.16-17.37,6.56Zm-.6-11.58c3.47-.18,5.94-1.29,7.41-3.32,1.47-2.04,2.09-5.2,1.86-9.49-.24-4.58-1.19-7.79-2.86-9.61-1.67-1.82-4.24-2.65-7.71-2.46-3.47.18-5.95,1.27-7.41,3.25-1.47,1.99-2.08,5.27-1.84,9.86.22,4.29,1.17,7.38,2.84,9.25,1.67,1.87,4.24,2.72,7.71,2.54Z"/>
      <path class="cls-12" d="m481.98,88.31l-1.9-36.48-13.1.68-.53-10.13,39.81-2.07.53,10.13-13.1.68,1.9,36.48-13.61.71Z"/>
      <path class="cls-12" d="m527.15,85.96l-2.43-46.61,35.03-1.82.53,10.13-21.42,1.12.42,8.03,18.67-.97.54,10.28-18.67.97.95,18.17-13.61.71Z"/>
      <path class="cls-12" d="m588.19,83.51c-7.72.4-13.72-1.17-17.99-4.72-4.27-3.55-6.63-9.52-7.06-17.92-.3-5.79.37-10.51,2.02-14.15,1.65-3.64,4.2-6.36,7.67-8.16s7.75-2.83,12.86-3.1c5.11-.27,9.49.32,13.12,1.75,3.63,1.43,6.45,3.87,8.47,7.32,2.02,3.45,3.18,8.07,3.48,13.86.44,8.39-1.3,14.58-5.2,18.56-3.9,3.98-9.69,6.17-17.36,6.56Zm-.6-11.58c3.47-.18,5.94-1.29,7.41-3.32,1.47-2.04,2.09-5.2,1.86-9.49-.24-4.58-1.19-7.79-2.86-9.61-1.67-1.82-4.24-2.65-7.71-2.46-3.47.18-5.95,1.27-7.41,3.25-1.47,1.99-2.08,5.27-1.84,9.86.22,4.29,1.17,7.38,2.84,9.25,1.67,1.87,4.24,2.72,7.72,2.54Z"/>
      <path class="cls-12" d="m638.78,80.87c-4.34.23-8.2-.29-11.58-1.54-3.38-1.25-6.08-3.21-8.11-5.89-2.03-2.68-3.14-6.04-3.36-10.09l-1.49-28.66,13.61-.71,1.42,27.21c.3,5.69,3.27,8.39,8.91,8.1,2.7-.14,4.74-.95,6.12-2.42,1.37-1.47,1.99-3.66,1.83-6.55l-1.42-27.21,13.61-.71,1.49,28.66c.21,4.05-.54,7.52-2.25,10.39-1.71,2.87-4.19,5.1-7.42,6.7-3.23,1.59-7.02,2.51-11.36,2.73Z"/>
      <path class="cls-12" d="m666.9,78.68l-2.43-46.61,11.58-.6,18.87,23.76-1.29-24.68,13.61-.71,2.43,46.61-11.65.61-18.8-23.69,1.28,24.61-13.61.71Z"/>
      <path class="cls-12" d="m716.18,76.11l-2.43-46.61,20.84-1.09c4.78-.25,8.89.32,12.35,1.72,3.46,1.39,6.17,3.77,8.14,7.12,1.96,3.36,3.1,7.88,3.39,13.58.42,8.01-1.23,13.95-4.95,17.82-3.72,3.87-9.22,6-16.5,6.37l-20.84,1.09Zm13.06-11.13l5.5-.29c2.27-.12,4.16-.54,5.67-1.28,1.51-.73,2.63-2.02,3.35-3.88.73-1.85,1-4.51.82-7.99-.18-3.47-.7-6.14-1.54-8.01-.85-1.87-2.06-3.13-3.65-3.8-1.58-.67-3.58-.94-5.99-.81l-5.5.29,1.34,25.76Z"/>
    </g>
  </g>
</svg>